<svg width="48" height="48" viewBox="0 0 48 48" fill="none" xmlns="http://www.w3.org/2000/svg">
    <path fill="currentColor" d="M19.2673 2.053C21.1454 1.72206 22.9364 2.97527 23.2676 4.85211C23.4332 5.79053 23.2024 6.70718 22.6956 7.43059L22.5673 7.61196C22.2307 8.09328 21.8071 8.8037 22.0513 10.1876C22.1861 10.952 22.7916 11.827 23.1177 12.0686C23.3069 12.0595 23.4975 12.0551 23.689 12.0551C26.3327 12.0551 28.7803 12.8941 30.7796 14.3203L30.7934 14.3165C31.2184 14.2103 32.9042 13.3681 33.2872 12.9119C33.9689 12.1 33.8709 11.5101 33.8372 11.1116C33.7878 10.5278 33.9612 9.92377 34.3691 9.43801C35.1849 8.46651 36.6296 8.33588 37.596 9.14624C38.5624 9.95661 38.6845 11.4011 37.8688 12.3726C37.4609 12.8584 36.8958 13.1339 36.3119 13.1867L36.1526 13.2005C35.7723 13.2361 35.2478 13.3284 34.6656 14.0025L34.6332 14.0406C34.2281 14.5231 33.0246 15.5906 33.1309 16.5462L33.1279 16.5111C34.2534 17.8777 35.0875 19.4929 35.5352 21.2619C36.0176 21.5421 36.6719 21.7411 37.4568 21.7137C39.0496 21.6582 39.6101 20.9516 40.0215 20.5107C40.6241 19.8648 41.4734 19.4487 42.4264 19.4155C44.3323 19.349 45.9313 20.8391 45.9979 22.7437C46.0644 24.6483 44.5733 26.2463 42.6674 26.3128C41.7328 26.3454 40.8719 26.0037 40.2294 25.4223L40.1919 25.3878C39.7584 24.9839 39.1422 24.311 37.5495 24.3665C36.9047 24.389 36.2422 24.5042 35.9196 24.8652L35.8915 24.898C35.7936 26.8151 35.2532 28.6156 34.3703 30.1993C34.5731 30.7267 35.08 30.9089 35.2591 31.0207C36.1585 31.5824 36.7294 31.4033 37.1197 31.3145C37.6914 31.1844 38.314 31.2719 38.8521 31.6079C39.9284 32.28 40.2589 33.6915 39.5903 34.7606C38.9218 35.8298 37.5074 36.1517 36.4312 35.4796C35.8931 35.1436 35.5414 34.6227 35.4078 34.0522L35.3768 33.917C35.2896 33.5438 35.1332 33.0279 34.3702 32.5366L34.305 32.4956C34.1158 32.3797 33.5587 32.0665 33.0579 32.1482L33.0137 32.1563C31.8431 33.5365 30.371 34.6533 28.6991 35.4054C28.3459 35.7573 28.3235 36.4991 28.4739 37.3514C28.7507 38.9199 29.5289 39.3763 30.023 39.722C30.7469 40.2285 31.2774 41.011 31.443 41.9495C31.7741 43.8263 30.5201 45.6161 28.642 45.947C26.7639 46.2779 24.9729 45.0247 24.6417 43.1479C24.4794 42.2279 24.698 41.3288 25.1843 40.6122L25.2381 40.5348C25.5806 40.0506 26.1283 39.3439 25.8581 37.8124L25.8487 37.7631C25.7614 37.3284 25.4689 36.5035 25.1622 36.4013L25.1328 36.3914C24.6594 36.4471 24.1776 36.4758 23.689 36.4758C22.4972 36.4758 21.3452 36.3053 20.2562 35.9873L20.1369 35.9966C19.8611 36.019 19.6058 36.0502 19.4248 36.1889C18.6718 36.7658 18.3913 37.8256 18.1535 38.258L18.1405 38.281C17.6103 39.1988 17.8093 39.7627 17.9117 40.1494C18.0618 40.7158 17.996 41.3407 17.6787 41.8898C17.0442 42.9881 15.6441 43.3675 14.5516 42.7371C13.459 42.1068 13.0877 40.7054 13.7223 39.6071C14.0312 39.0724 14.5215 38.7081 15.0695 38.5478L15.1141 38.5352C15.4876 38.434 16.0697 38.3244 16.5935 37.4461L16.6682 37.3189C16.9225 36.8907 17.4222 36.1019 17.4606 35.5505C17.4818 35.2462 17.4518 34.9776 17.4264 34.7519C15.5362 33.6223 13.977 31.9968 12.9286 30.0551C12.3885 29.7488 11.5536 29.9849 10.6686 30.2553C9.1445 30.7209 8.78607 31.5484 8.50289 32.0806C8.088 32.8604 7.37546 33.482 6.46358 33.7606C4.63983 34.3178 2.70938 33.292 2.1518 31.4695C1.59422 29.647 2.62066 27.7178 4.44441 27.1606C5.33841 26.8875 6.25805 26.9947 7.02904 27.3897L7.11248 27.4337C7.63511 27.7144 8.40375 28.1715 9.89198 27.7168C10.6794 27.4762 11.4052 27.0592 11.655 26.4551L11.6628 26.4352C11.5364 25.731 11.4704 25.0059 11.4704 24.2654C11.4704 21.884 12.1527 19.6618 13.3324 17.7834L13.2586 17.6709C13.123 17.4664 12.9604 17.2423 12.7247 17.0774C11.8543 16.4684 11.2738 16.6177 10.8787 16.6861C10.2999 16.7863 9.68159 16.6661 9.16086 16.3017C8.1194 15.573 7.86279 14.1435 8.58772 13.1089C9.31264 12.0743 10.7446 11.8264 11.786 12.5551C12.3068 12.9195 12.6313 13.459 12.735 14.0368L12.7589 14.1737C12.8278 14.5584 12.9607 15.0951 13.7344 15.6364C14.0496 15.857 14.4194 15.9186 14.7054 15.9896C15.9798 14.6083 17.5693 13.5218 19.3599 12.8437C19.5416 12.398 19.6057 11.6135 19.4354 10.6486C19.1586 9.08011 18.3805 8.62375 17.8864 8.27801C17.1625 7.77147 16.6319 6.98896 16.4663 6.05054C16.1352 4.1737 17.3892 2.38394 19.2673 2.053ZM39.0951 39.6611C40.2687 39.6611 41.2201 40.6118 41.2201 41.7846C41.2201 42.9574 40.2687 43.9082 39.0951 43.9082C37.9215 43.9082 36.9701 42.9574 36.9701 41.7846C36.9701 40.6118 37.9215 39.6611 39.0951 39.6611ZM8.28298 38.0684C8.86978 38.0684 9.34547 38.5438 9.34547 39.1302C9.34547 39.7166 8.86978 40.192 8.28298 40.192C7.69619 40.192 7.2205 39.7166 7.2205 39.1302C7.2205 38.5438 7.69619 38.0684 8.28298 38.0684ZM23.689 14.7095C18.4079 14.7095 14.1267 18.9879 14.1267 24.2654C14.1267 26.1785 14.6892 27.9603 15.6581 29.4546C17.3619 32.0826 20.3223 33.8214 23.689 33.8214C28.9702 33.8214 33.2514 29.543 33.2514 24.2654C33.2514 18.9879 28.9702 14.7095 23.689 14.7095ZM22.8922 27.9816C23.6257 27.9816 24.2203 28.5758 24.2203 29.3088C24.2203 30.0418 23.6257 30.6361 22.8922 30.6361C22.1587 30.6361 21.5641 30.0418 21.5641 29.3088C21.5641 28.5758 22.1587 27.9816 22.8922 27.9816ZM27.939 23.2037C28.5258 23.2037 29.0015 23.679 29.0015 24.2654C29.0015 24.8518 28.5258 25.3272 27.939 25.3272C27.3522 25.3272 26.8765 24.8518 26.8765 24.2654C26.8765 23.679 27.3522 23.2037 27.939 23.2037ZM21.0328 20.0184C22.2064 20.0184 23.1578 20.9691 23.1578 22.1419C23.1578 23.3147 22.2064 24.2654 21.0328 24.2654C19.8592 24.2654 18.9078 23.3147 18.9078 22.1419C18.9078 20.9691 19.8592 20.0184 21.0328 20.0184ZM8.5486 3.03008C9.86889 3.03008 10.9392 4.09967 10.9392 5.41906C10.9392 6.73846 9.86889 7.80804 8.5486 7.80804C7.22832 7.80804 6.15801 6.73846 6.15801 5.41906C6.15801 4.09967 7.22832 3.03008 8.5486 3.03008Z"/>
</svg>
